<?xml version="1.0" encoding="utf-8"?>
<!-- Generator: Adobe Illustrator 22.0.1, SVG Export Plug-In . SVG Version: 6.00 Build 0)  -->
<svg version="1.1" id="Capa_1" xmlns="http://www.w3.org/2000/svg" xmlns:xlink="http://www.w3.org/1999/xlink" x="0px" y="0px"
	 viewBox="0 0 86 71" style="enable-background:new 0 0 86 71;" xml:space="preserve">
<style type="text/css">
	.st0{fill:#FFFFFF;}
</style>
<g>
	<g>
		<path class="st0" d="M74.2,50.4c0.5,0,1-0.4,1-1v-1.8c0-1.9-1.4-3.4-3.2-3.4h-1.5v-2c0-1.4-1.1-2.5-2.5-2.5h-7.7
			c-1.4,0-2.5,1.1-2.5,2.5v5.1c-6.9-0.8-15.4-0.8-22.3,0v-5.1c0-1.4-1.1-2.5-2.5-2.5h-0.6c5.2-3.2,11.1-7.5,15.7-11.7l3,4.1
			c0.8,1.1,2.4,1.4,3.5,0.5l6.2-4.5c0,0,0,0,0,0c1.1-0.8,1.4-2.4,0.5-3.5l-1.2-1.6l1.3-0.9c1.4-1,1.7-3.1,0.6-4.6l-5.2-7.1
			c-1.1-1.5-3.1-1.9-4.6-0.9l-1.3,0.9l-1.2-1.6c-0.8-1.1-2.4-1.4-3.5-0.5l-6.2,4.5c-1.1,0.8-1.4,2.4-0.5,3.5l3,4.1
			c-6,3.4-13,8.4-18.1,13.1l-2.2-3c-1.2-1.7-3.6-2.1-5.4-0.8l-4,2.9c-1.7,1.2-2.1,3.6-0.8,5.4l0.4,0.5l-1.3,0.9
			c-1.4,1.1-1.7,3.1-0.6,4.6l5.2,7.1c0.6,0.8,1.4,1.3,2.3,1.4v3.8c0,1.9,1.4,3.4,3.2,3.4h1.5v2c0,1.4,1.1,2.5,2.5,2.5h7.7
			c1.4,0,2.5-1.1,2.5-2.5v-5.1c2.7,0.3,5.8,0.5,8.9,0.6c0,0,0,0,0,0c0.5,0,0.9-0.4,1-0.9c0-0.5-0.4-1-0.9-1
			c-3.2-0.1-6.2-0.3-8.9-0.6v-5.5c6.8-0.8,15.4-0.8,22.3,0v5.5c-2.7,0.3-5.8,0.5-8.9,0.6c-0.5,0-0.9,0.4-0.9,1c0,0.5,0.4,0.9,1,0.9
			c0,0,0,0,0,0c3.1-0.1,6.2-0.3,8.9-0.6v5.1c0,1.4,1.1,2.5,2.5,2.5h7.7c1.4,0,2.5-1.1,2.5-2.5v-2H72c1.8,0,3.2-1.5,3.2-3.4v-2.5
			c0-0.5-0.4-1-1-1s-1,0.4-1,1v2.5c0,0.8-0.6,1.5-1.3,1.5h-1.5V46.2H72c0.7,0,1.3,0.7,1.3,1.5v1.8C73.2,50,73.7,50.4,74.2,50.4z
			 M53.3,11.2c0.6-0.4,1.4-0.2,1.9,0.4l5.2,7.1c0.5,0.6,0.4,1.5-0.2,1.9L59,21.6c-0.8-1.1-6.1-8.4-6.9-9.5L53.3,11.2z M41.1,15.3
			c-0.2-0.3-0.1-0.6,0.1-0.8l6.2-4.5c0.3-0.2,0.6-0.1,0.8,0.1c0.4,0.5,9.3,12.8,9.8,13.4c0,0,0,0,0,0l1.7,2.4
			c0.2,0.3,0.1,0.6-0.1,0.8l-6.2,4.5c-0.3,0.2-0.6,0.1-0.8-0.1C52.2,30.5,41.5,15.9,41.1,15.3z M43.7,22.1l3.2,4.4
			c-5,4.6-12,9.7-18.1,13.1l-3.2-4.4C30.6,30.6,37.6,25.5,43.7,22.1z M18,47.6v3c-0.3-0.1-0.5-0.3-0.7-0.6L12.1,43
			c-0.5-0.7-0.4-1.5,0.2-1.9l1.3-0.9c0.2,0.2,1.3,1.8,4.7,6.4C18.1,46.9,18,47.3,18,47.6z M22.8,57.9h-1.5c-0.7,0-1.3-0.7-1.3-1.5
			c0-0.9,0-7.9,0-8.8c0-0.3,0.1-0.7,0.3-1c0.3-0.3,0.6-0.5,0.9-0.5h1.5L22.8,57.9L22.8,57.9z M22.8,42.3v2h-1.5c-0.1,0-0.2,0-0.2,0
			c0,0,0,0,0,0c-0.6,0.1-1.1,0.3-1.6,0.6l-5.8-7.9c-0.6-0.9-0.4-2.1,0.4-2.7l4-2.9c0.9-0.6,2.1-0.4,2.7,0.4c0.7,1,5.1,7,5.9,8.1
			h-1.3C23.9,39.8,22.8,40.9,22.8,42.3z M33.5,61.8c0,0.3-0.3,0.6-0.6,0.6h-7.7c-0.3,0-0.6-0.3-0.6-0.6c0-0.9,0-18.9,0-19.5
			c0-0.3,0.3-0.6,0.6-0.6c1.9,0,3,0,3.6,0c0.4,0,0.5,0,0.5,0c0.6,0,1.6,0,3.6,0c0.3,0,0.6,0.3,0.6,0.6
			C33.5,43.5,33.5,61.1,33.5,61.8z M68.5,61.8c0,0.3-0.3,0.6-0.6,0.6h-7.7c-0.3,0-0.6-0.3-0.6-0.6V42.3c0-0.3,0.3-0.6,0.6-0.6h7.7
			c0.3,0,0.6,0.3,0.6,0.6C68.5,43.5,68.5,61.2,68.5,61.8z"/>
	</g>
</g>
</svg>
