<?xml version="1.0" encoding="utf-8"?>
<!-- Generator: Adobe Illustrator 22.0.1, SVG Export Plug-In . SVG Version: 6.00 Build 0)  -->
<svg version="1.1" id="Capa_1" xmlns="http://www.w3.org/2000/svg" xmlns:xlink="http://www.w3.org/1999/xlink" x="0px" y="0px"
	 viewBox="0 0 150 150" style="enable-background:new 0 0 150 150;" xml:space="preserve">
<style type="text/css">
	.st0{fill:#FFFFFF;}
</style>
<g>
	<g>
		<path class="st0" d="M44.9,94.6c0,0.3,0.3,0.7,0.6,0.8c0.2,0.1,6,3.3,14.2,5.5c7.4,1.9,18.1,3.4,28.2-0.6c0.8,2,3,6,8,9
			c0.2,0.1,0.4,0.2,0.6,0.2c0.4,0,0.7-0.2,1-0.5c0.1-0.1,5.2-8.5,9.5-18.9c4.4-10.6,0.8-21.5,0.6-22c-0.2-0.5-0.7-0.8-1.2-0.7
			c0,0-3.1,0.3-8,0.2c-5.2-0.2-12.1,1.9-16.2,8.1C79.3,75.1,70,74,65.5,82.4c-0.8,0.2-1.6,0.3-2.2,0.4c0.8-2.2,2.5-7.4,1.9-17.8
			c0.7-0.6,2.2-1.8,3.7-2.2c0.7-0.2,1.2-0.1,1.8-0.1c1.3,0.1,2.7,0.2,4.7-1.8c2.6-2.5,5.5-7.1,3.7-9.1c-0.7-0.8-1.6-1.1-2.2-1.3
			c-0.3-1.4-1.1-3.2-3.2-3.3c-1.9-0.1-10.8,1.3-13.2,4.5c-0.9,1.2-1.5,2.9-2.1,4.8c-1,2.7-2.1,5.8-4.2,8.6c-0.2,0.3-0.5,0.6-0.7,0.9
			C49.5,71,42.9,79.4,44.9,94.6z M55.2,67.4c0.2-0.3,0.5-0.6,0.7-0.9c2.4-3.1,3.6-6.5,4.5-9.2c0.6-1.8,1.2-3.3,1.8-4.3
			c1.5-2.1,8.7-3.6,11.1-3.6c0.1,0,0.1,0,0.2,0c1.1,0,1.2,2,1.2,2c0,0.6,0.5,1.1,1.1,1.1c0,0,0.9,0,1.6,0.7c0.2,0.7-1.2,3.6-3.6,6
			c-1.4,1.3-1.9,1.3-3,1.2c-0.6,0-1.4-0.1-2.4,0.1c-2.7,0.6-5.1,3-5.2,3.1c-0.2,0.2-0.3,0.5-0.3,0.9c0.7,10.4-1,15.4-1.8,17.5
			c-0.4,1.1-0.6,1.8,0,2.4c0.3,0.3,1,1.1,5.4,0c0.3-0.1,0.6-0.3,0.7-0.6c4.4-8.8,15-5.9,15.1-5.8c0.5,0.1,1-0.1,1.3-0.5
			c3.5-5.9,9.8-7.9,14.6-7.7c3.5,0.1,6,0,7.3-0.1c0.7,2.7,2.6,11.3-0.8,19.6c-3.4,8.1-7.3,15.1-8.7,17.6c-5.2-3.5-6.4-8.2-6.5-8.2
			c-0.1-0.3-0.3-0.6-0.6-0.7c-0.3-0.1-0.6-0.2-0.9,0c-17.2,7.5-37.6-2.3-41-4.1C45.4,79.8,51.3,72.4,55.2,67.4z"/>
	</g>
</g>
<g>
	<g>
		<path class="st0" d="M50.2,42.4l6.7,6.7c0.2,0.2,0.5,0.3,0.8,0.3c0.3,0,0.6-0.1,0.8-0.3c0.4-0.4,0.4-1.1,0-1.6l-6.7-6.7
			c-0.4-0.4-1.1-0.4-1.6,0S49.8,42,50.2,42.4z"/>
	</g>
</g>
<g>
	<g>
		<path class="st0" d="M42.8,51.6L53.9,56c0.1,0.1,0.3,0.1,0.4,0.1c0.4,0,0.9-0.3,1-0.7c0.2-0.6,0-1.2-0.6-1.4l-11.2-4.5
			c-0.6-0.2-1.2,0-1.5,0.6C41.9,50.7,42.2,51.3,42.8,51.6z"/>
	</g>
</g>
<g>
	<g>
		<path class="st0" d="M42,61.7l8.9,1.1c0,0,0.1,0,0.1,0c0.6,0,1-0.4,1.1-1c0.1-0.6-0.4-1.2-1-1.2l-8.9-1.1c-0.6-0.1-1.2,0.4-1.2,1
			C40.9,61,41.3,61.6,42,61.7z"/>
	</g>
</g>
<g>
	<g>
		<path class="st0" d="M64.9,92.7c1.8,1.1,3.9,1.7,6.2,1.7c2.7,0,5.7-0.8,8.8-2.4c4.3-2.1,7.4-4.9,7.5-5.1c0.5-0.4,0.5-1.1,0.1-1.6
			C87.1,85,86.4,85,86,85.4c-0.1,0.1-11.7,10.5-19.8,5.5c-0.5-0.3-1.2-0.2-1.5,0.4C64.2,91.7,64.4,92.4,64.9,92.7z"/>
	</g>
</g>
</svg>
